DBRep_DrawableShape

CASCADE Topology V1, (c) Matra-Datavision
Locations 43
1
              1               0               0               0 
              0               1               0               0 
              0               0               1               0 
1
              1               0               0               0 
              0               1               0               0 
              0               0               1               0 
1
              1               0               0               0 
              0               1               0               0 
              0               0               1               0 
1
              1               0               0               0 
              0               1               0               0 
              0               0               1               0 
2  2 1 3 -1 4 1 0
1
              1               0               0               0 
              0               1               0               0 
              0               0               1               0 
1
              1               0               0               0 
              0               1               0               0 
              0               0               1               0 
1
              1               0               0               0 
              0               1               0               0 
              0               0               1               0 
2  6 1 7 1 8 -1 2 1 3 -1 4 1 0
2  4 -1 3 1 2 -1 8 1 7 -1 6 -1 0
2  7 -1 6 -1 0
1
              1               0               0               0 
              0               1               0               0 
              0               0               1               0 
2  12 -1 4 -1 3 1 2 -1 8 1 7 -1 6 -1 0
2  4 -1 3 1 2 -1 0
2  12 -1 4 -1 3 1 2 -1 0
2  4 -1 0
2  12 -1 4 -1 0
1
              1               0               0              -0 
              0               1               0              -0 
              0               0               1             -20 
2  6 1 7 1 8 -1 18 1 2 1 3 -1 4 1 0
2  4 -1 3 1 2 -1 18 -1 8 1 7 -1 6 -1 0
2  12 -1 4 -1 3 1 2 -1 18 -1 8 1 7 -1 6 -1 0
2  12 -1 0
2  8 -1 2 1 3 -1 4 1 0
2  6 1 7 1 0
1
              1               0               0               0 
              0               1               0               0 
              0               0               1               0 
1
              1               0               0               0 
              0              -1               0               0 
              0               0              -1             -20 
2  25 1 26 1 3 -1 4 1 0
2  4 -1 3 1 26 -1 25 -1 0
2  12 -1 4 -1 3 1 26 -1 25 -1 0
1
              1               0               0               0 
              0               1               0               0 
              0               0               1              10 
2  25 1 26 1 3 -1 30 1 4 1 0
2  4 -1 30 -1 3 1 26 -1 25 -1 0
2  12 -1 4 -1 30 -1 3 1 26 -1 25 -1 0
2  8 -1 18 1 2 1 3 -1 4 1 0
1
              1               0               0               0 
              0               1               0               0 
              0               0               1               0 
1
1.11022302462516e-16               1               0               0 
             -1 1.11022302462516e-16               0               0 
              0               0               1               0 
2  25 1 26 1 3 -1 35 1 36 1 0
2  36 -1 35 -1 3 1 26 -1 25 -1 0
2  12 -1 36 -1 35 -1 3 1 26 -1 25 -1 0
2  35 1 36 1 0
2  25 1 26 1 3 -1 30 1 35 1 36 1 0
2  36 -1 35 -1 30 -1 3 1 26 -1 25 -1 0
2  12 -1 36 -1 35 -1 30 -1 3 1 26 -1 25 -1 0
Curve2ds 0
Curves 48
1 -100 100 0 1 0 0 
1 100 100 0 -0 -0 -1 
1 -52.329327864059877 100 -10 1 0 0 
1 71.715728752537927 100.00000000000003 -10 -0 -0 -1 
1 -100 100 0 1 0 0 
1 -71.715728752538411 100 -10 0 0 1 
1 -52.328269231886139 100 -10 1 0 0 
1 -100 100 0 -0 -0 -1 
1 100 100 0 0 -1 0 
1 100 -100 0 -1 0 0 
1 -100 -100 0 0 1 0 
1 100 -100 0 -0 -0 -1 
1 100 52.329327864059877 -10 0 -1 0 
1 100.00000000000003 -71.715728752537913 -10 0 0 -1 
1 100 100 0 0 -1 0 
1 100 71.715728752538439 -10 0 0 1 
1 100 47.671730768113861 -10 0 -1 0 
1 -133.76162734801341 105.47735610055193 0 0.70710678118654646 -0.70710678118654868 0 
1 -133.76162734801341 105.47735610055193 0 0.70710678118654646 -0.70710678118654868 0 
1 -2.1316282072803006e-14 28.284271247461859 -20 0 0 -1 
1 -133.76162734801341 105.47735610055193 0 0.70710678118654646 -0.70710678118654868 0 
1 -133.76162734801341 105.47735610055193 0 0.70710678118654646 -0.70710678118654868 0 
1 -100 -47.670672135940123 -10 0 1 0 
1 -100 71.715728752537871 -10 0 0 -1 
1 -100 -100 0 0 1 0 
1 -100 -71.715728752538411 -10 0 0 1 
1 -100 -52.328269231886139 -10 0 1 0 
1 -100 -100 0 -0 -0 -1 
1 47.670672135940123 -100 -10 -1 0 0 
1 -71.715728752537885 -100 -10 0 0 -1 
1 100 -100 0 -1 0 0 
1 71.715728752538467 -100 -10 0 0 1 
1 47.671730768113861 -100 -10 -1 0 0 
1 -133.76162734801341 105.47735610055193 0 0.70710678118654646 -0.70710678118654868 0 
1 -133.76162734801341 105.47735610055193 0 0.70710678118654646 -0.70710678118654868 0 
1 28.284271247461852 5.6843418860808015e-14 -20 0 0 1 
1 124.42559396085073 -96.141322713389258 0 -0.70710678118654635 0.70710678118654868 0 
1 124.42559396085073 -96.141322713389258 0 -0.70710678118654635 0.70710678118654868 0 
1 124.42559396085073 -96.141322713389258 0 -0.70710678118654635 0.70710678118654868 0 
1 124.42559396085073 -96.141322713389258 0 -0.70710678118654635 0.70710678118654868 0 
1 -28.284271247461845 -2.8421709430404007e-14 -20 0 0 1 
1 -133.76162734801341 105.47735610055193 0 0.70710678118654646 -0.70710678118654868 0 
1 -133.76162734801341 105.47735610055193 0 0.70710678118654646 -0.70710678118654868 0 
1 124.42559396085073 -96.141322713389258 0 -0.70710678118654635 0.70710678118654868 0 
1 124.42559396085073 -96.141322713389258 0 -0.70710678118654635 0.70710678118654868 0 
1 6.3948846218409017e-14 -28.284271247461824 -20 0 0 -1 
1 124.42559396085073 -96.141322713389258 0 -0.70710678118654635 0.70710678118654868 0 
1 124.42559396085073 -96.141322713389258 0 -0.70710678118654635 0.70710678118654868 0 
Polygon3D 0
PolygonOnTriangulations 96
2 1 2 
p 0.7 1 0 200 
2 1 2 
p 0.7 1 0 200 
2 2 8 
p 0.7 1 0 10 
2 1 3 
p 0.7 1 0 10 
2 7 8 
p 0.7 1 124.045056616598 152.32932786406 
2 15 16 
p 0.7 1 124.045056616598 152.32932786406 
2 7 6 
p 0.7 1 0 10 
2 4 2 
p 0.7 1 0 10 
2 5 6 
p 0.7 1 28.2842712474616 171.715728752538 
2 3 2 
p 0.7 1 28.2842712474616 171.715728752538 
2 5 4 
p 0.7 1 -10 0 
2 1 3 
p 0.7 1 -10 0 
2 3 4 
p 0.7 1 -47.6717307681139 -19.3874595206523 
2 12 13 
p 0.7 1 -47.6717307681139 -19.3874595206523 
2 1 3 
p 0.7 1 0 10 
2 2 8 
p 0.7 1 0 10 
2 2 3 
p 0.7 1 0 200 
2 1 2 
p 0.7 1 0 200 
2 3 4 
p 0.7 1 0 200 
2 1 2 
p 0.7 1 0 200 
2 4 1 
p 0.7 1 0 200 
2 1 2 
p 0.7 1 0 200 
2 2 8 
p 0.7 1 0 10 
2 1 3 
p 0.7 1 0 10 
2 7 8 
p 0.7 1 124.045056616598 152.32932786406 
2 3 4 
p 0.7 1 124.045056616598 152.32932786406 
2 7 6 
p 0.7 1 0 10 
2 4 2 
p 0.7 1 0 10 
2 5 6 
p 0.7 1 28.2842712474616 171.715728752538 
2 1 3 
p 0.7 1 28.2842712474616 171.715728752538 
2 5 4 
p 0.7 1 -10 0 
2 1 3 
p 0.7 1 -10 0 
2 3 4 
p 0.7 1 -52.3282692318861 -24.0439979844246 
2 16 1 
p 0.7 1 -52.3282692318861 -24.0439979844246 
2 1 2 
p 0.7 1 189.167507520657 290.588863757966 
2 1 2 
p 0.7 1 189.167507520657 290.588863757966 
2 3 4 
p 0.7 1 189.167507520657 290.588863757966 
2 14 15 
p 0.7 1 189.167507520657 290.588863757966 
2 3 1 
p 0.7 1 -10 0 
2 4 2 
p 0.7 1 -10 0 
2 3 1 
p 0.7 1 47.746151283347 149.167507520657 
2 1 2 
p 0.7 1 47.746151283347 149.167507520657 
2 3 4 
p 0.7 1 47.746151283347 149.167507520657 
2 13 14 
p 0.7 1 47.746151283347 149.167507520657 
2 7 8 
p 0.7 1 119.386400888478 147.67067213594 
2 11 12 
p 0.7 1 119.386400888478 147.67067213594 
2 7 6 
p 0.7 1 0 10 
2 4 2 
p 0.7 1 0 10 
2 5 6 
p 0.7 1 28.2842712474616 171.715728752538 
2 1 3 
p 0.7 1 28.2842712474616 171.715728752538 
2 5 4 
p 0.7 1 -10 0 
2 1 3 
p 0.7 1 -10 0 
2 3 4 
p 0.7 1 -47.6717307681139 -19.3874595206523 
2 8 9 
p 0.7 1 -47.6717307681139 -19.3874595206523 
2 1 3 
p 0.7 1 0 10 
2 2 8 
p 0.7 1 0 10 
2 7 8 
p 0.7 1 119.386400888478 147.67067213594 
2 7 8 
p 0.7 1 119.386400888478 147.67067213594 
2 7 6 
p 0.7 1 0 10 
2 4 2 
p 0.7 1 0 10 
2 5 6 
p 0.7 1 28.2842712474615 171.715728752538 
2 3 2 
p 0.7 1 28.2842712474615 171.715728752538 
2 5 4 
p 0.7 1 -10 0 
2 1 3 
p 0.7 1 -10 0 
2 3 4 
p 0.7 1 -52.3282692318861 -24.0439979844246 
2 4 5 
p 0.7 1 -52.3282692318861 -24.0439979844246 
2 1 2 
p 0.7 1 189.167507520657 290.588863757966 
2 2 3 
p 0.7 1 189.167507520657 290.588863757966 
2 3 4 
p 0.7 1 189.167507520657 290.588863757966 
2 2 3 
p 0.7 1 189.167507520657 290.588863757966 
2 1 3 
p 0.7 1 0 10 
2 2 4 
p 0.7 1 0 10 
2 1 2 
p 0.7 1 34.5430062484535 135.964362485763 
2 1 2 
p 0.7 1 34.5430062484535 135.964362485763 
2 3 4 
p 0.7 1 34.5430062484535 135.964362485763 
2 1 2 
p 0.7 1 34.5430062484535 135.964362485763 
2 1 2 
p 0.7 1 175.964362485763 277.385718723073 
2 2 3 
p 0.7 1 175.964362485763 277.385718723073 
2 3 4 
p 0.7 1 175.964362485763 277.385718723073 
2 10 11 
p 0.7 1 175.964362485763 277.385718723073 
2 1 3 
p 0.7 1 0 10 
2 2 4 
p 0.7 1 0 10 
2 1 2 
p 0.7 1 47.746151283347 149.167507520657 
2 1 2 
p 0.7 1 47.746151283347 149.167507520657 
2 3 4 
p 0.7 1 47.746151283347 149.167507520657 
2 9 10 
p 0.7 1 47.746151283347 149.167507520657 
2 1 2 
p 0.7 1 175.964362485763 277.385718723073 
2 1 2 
p 0.7 1 175.964362485763 277.385718723073 
2 3 4 
p 0.7 1 175.964362485763 277.385718723073 
2 6 7 
p 0.7 1 175.964362485763 277.385718723073 
2 3 1 
p 0.7 1 -10 0 
2 4 2 
p 0.7 1 -10 0 
2 3 1 
p 0.7 1 34.5430062484535 135.964362485763 
2 1 2 
p 0.7 1 34.5430062484535 135.964362485763 
2 3 4 
p 0.7 1 34.5430062484535 135.964362485763 
2 5 6 
p 0.7 1 34.5430062484535 135.964362485763 
Surfaces 18
1 -100 100 0 0 -1 0 1 0 0 0 0 1 
1 0 0 0 -0 -0 -1 -1 0 0 0 1 0 
1 100 100 0 -1 0 0 0 -1 0 0 0 1 
1 -133.76162734801341 -105.47735610055193 -20 -0.70710678118654868 0.70710678118654646 0 0.70710678118654646 0.70710678118654868 0 0 0 -1 
1 0 0 0 -0 -0 -1 -1 0 0 0 1 0 
1 -133.76162734801341 -105.47735610055193 -20 -0.70710678118654868 0.70710678118654646 0 0.70710678118654646 0.70710678118654868 0 0 0 -1 
1 -100 -100 0 1 0 0 0 1 0 0 0 1 
1 100 -100 0 0 1 0 -1 0 0 0 0 1 
1 -133.76162734801341 -105.47735610055193 -20 -0.70710678118654868 0.70710678118654646 0 0.70710678118654646 0.70710678118654868 0 0 0 -1 
1 0 0 0 -0 -0 -1 -1 0 0 0 1 0 
1 124.42559396085073 96.141322713389258 -20 0.70710678118654868 -0.70710678118654635 0 -0.70710678118654635 -0.70710678118654868 0 0 0 -1 
1 124.42559396085073 96.141322713389258 -20 0.70710678118654868 -0.70710678118654635 0 -0.70710678118654635 -0.70710678118654868 0 0 0 -1 
1 0 0 0 -0 -0 -1 -1 0 0 0 1 0 
1 -133.76162734801341 -105.47735610055193 -20 -0.70710678118654868 0.70710678118654646 0 0.70710678118654646 0.70710678118654868 0 0 0 -1 
1 124.42559396085073 96.141322713389258 -20 0.70710678118654868 -0.70710678118654635 0 -0.70710678118654635 -0.70710678118654868 0 0 0 -1 
1 0 0 0 -0 -0 -1 -1 0 0 0 1 0 
1 124.42559396085073 96.141322713389258 -20 0.70710678118654868 -0.70710678118654635 0 -0.70710678118654635 -0.70710678118654868 0 0 0 -1 
1 -3.0677460935330154e-15 7.1215534314159281e-15 -9.9999999999999982 6.1285444523424193e-34 -8.5799622332793873e-34 -1 0 -1 8.5799622332793873e-34 -1 -5.2582679946071864e-67 -6.1285444523424193e-34 
Triangulations 18
8 6 1 0.7
-100 100 0 100 100 0 -100 100 -10 -71.7157287525384 100 -10 -71.7157287525384 100 -20 71.7157287525379 100 -20 71.7157287525379 100 -10 100 100 -10 0 0 200 0 0 -10 28.2842712474616 -10 28.2842712474616 -20 171.715728752538 -20 171.715728752538 -10 200 -10 4 1 3 7 4 5 7 5 6 2 7 8 2 1 4 2 4 7 
4 2 1 0.7
-100 100 0 100 100 0 100 -100 0 -100 -100 0 100 100 -100 100 -100 -100 100 -100 1 2 3 1 3 4 
8 6 1 0.7
100 100 0 100 -100 0 100 100 -10 100 71.7157287525384 -10 100 71.7157287525384 -20 100 -71.7157287525379 -20 100 -71.7157287525378 -10 100 -100 -10 0 0 200 0 0 -10 28.2842712474616 -10 28.2842712474616 -20 171.715728752538 -20 171.715728752538 -10 200 -10 4 1 3 7 4 5 7 5 6 2 7 8 2 1 4 2 4 7 
16 14 1 0.7
100 71.7157287525384 -10 28.2842712474619 6.3948846218409e-14 -10 100 -71.7157287525378 -10 100 -100 -10 71.7157287525385 -100 -10 5.6843418860808e-14 -28.2842712474618 -10 -71.7157287525379 -100 -10 -100 -100 -10 -100 -71.7157287525384 -10 -28.2842712474618 -2.8421709430404e-14 -10 -100 71.7157287525379 -10 -100 100 -10 -71.7157287525384 100 -10 -7.105427357601e-15 28.2842712474619 -10 71.7157287525379 100 -10 100 100 -10 -71.7157287525384 -100 -2.8421709430404e-14 -28.2842712474619 71.7157287525378 -100 100 -100 100 -71.7157287525385 28.2842712474618 -5.6843418860808e-14 100 71.7157287525379 100 100 71.7157287525384 100 5.6843418860808e-14 28.2842712474618 -71.7157287525378 100 -100 100 -100 71.7157287525384 -28.2842712474619 0 -100 -71.7157287525379 -100 -100 15 16 1 2 15 1 14 15 2 5 3 4 6 2 3 6 3 5 10 14 2 10 2 6 11 12 13 11 13 14 11 14 10 7 10 6 9 10 7 8 9 7 
4 2 1 0.7
-7.105427357601e-15 28.2842712474619 -20 71.7157287525379 100 -20 -7.105427357601e-15 28.2842712474619 -10 71.7157287525379 100 -10 189.167507520657 0 290.588863757966 0 189.167507520657 -10 290.588863757966 -10 2 1 3 2 3 4 
3 1 1 0.7
-7.105427357601e-15 28.2842712474619 -20 71.7157287525379 100 -20 -71.7157287525384 100 -20 1.4210854715202e-14 28.2842712474618 -71.7157287525379 100 71.7157287525384 100 3 2 1 
4 2 1 0.7
-71.7157287525384 100 -20 -7.105427357601e-15 28.2842712474619 -20 -71.7157287525384 100 -10 -7.105427357601e-15 28.2842712474619 -10 47.746151283347 0 149.167507520657 0 47.746151283347 -10 149.167507520657 -10 2 1 3 2 3 4 
8 6 1 0.7
-100 -100 0 -100 100 0 -100 -100 -10 -100 -71.7157287525384 -10 -100 -71.7157287525384 -20 -100 71.7157287525379 -20 -100 71.7157287525379 -10 -100 100 -10 0 0 200 0 0 -10 28.2842712474616 -10 28.2842712474616 -20 171.715728752538 -20 171.715728752538 -10 200 -10 4 1 3 7 4 5 7 5 6 2 7 8 2 1 4 2 4 7 
8 6 1 0.7
100 -100 0 -100 -100 0 100 -100 -10 71.7157287525385 -100 -10 71.7157287525385 -100 -20 -71.7157287525379 -100 -20 -71.7157287525379 -100 -10 -100 -100 -10 0 0 200 0 0 -10 28.2842712474615 -10 28.2842712474615 -20 171.715728752538 -20 171.715728752538 -10 200 -10 4 1 3 7 4 5 7 5 6 2 7 8 2 1 4 2 4 7 
4 2 1 0.7
28.2842712474619 6.3948846218409e-14 -20 100 -71.7157287525379 -20 28.2842712474619 6.3948846218409e-14 -10 100 -71.7157287525378 -10 189.167507520657 0 290.588863757966 0 189.167507520657 -10 290.588863757966 -10 2 1 3 2 3 4 
3 1 1 0.7
100 71.7157287525384 -20 28.2842712474619 6.3948846218409e-14 -20 100 -71.7157287525379 -20 -100 71.7157287525384 -28.2842712474619 2.8421709430404e-14 -100 -71.7157287525379 1 3 2 
4 2 1 0.7
100 71.7157287525384 -20 28.2842712474619 6.3948846218409e-14 -20 100 71.7157287525384 -10 28.2842712474619 6.3948846218409e-14 -10 34.5430062484535 0 135.964362485763 0 34.5430062484535 -10 135.964362485763 -10 2 1 3 2 3 4 
4 2 1 0.7
-28.2842712474618 -2.8421709430404e-14 -20 -100 71.7157287525379 -20 -28.2842712474618 -2.8421709430404e-14 -10 -100 71.7157287525379 -10 175.964362485763 0 277.385718723073 0 175.964362485763 -10 277.385718723073 -10 4 1 3 2 1 4 
3 1 1 0.7
-100 -71.7157287525384 -20 -28.2842712474618 -2.8421709430404e-14 -20 -100 71.7157287525379 -20 100 -71.7157287525384 28.2842712474619 -4.2632564145606e-14 100 71.7157287525378 3 2 1 
4 2 1 0.7
-100 -71.7157287525384 -20 -28.2842712474618 -2.8421709430404e-14 -20 -100 -71.7157287525384 -10 -28.2842712474618 -2.8421709430404e-14 -10 47.746151283347 0 149.167507520657 0 47.746151283347 -10 149.167507520657 -10 2 1 3 2 3 4 
4 2 1 0.7
5.6843418860808e-14 -28.2842712474618 -20 -71.7157287525379 -100 -20 5.6843418860808e-14 -28.2842712474618 -10 -71.7157287525379 -100 -10 175.964362485763 0 277.385718723073 0 175.964362485763 -10 277.385718723073 -10 2 1 3 2 3 4 
3 1 1 0.7
5.6843418860808e-14 -28.2842712474618 -20 -71.7157287525379 -100 -20 71.7157287525385 -100 -20 -5.6843418860808e-14 -28.2842712474618 71.7157287525379 -100 -71.7157287525385 -100 1 3 2 
4 2 1 0.7
71.7157287525385 -100 -20 5.6843418860808e-14 -28.2842712474618 -20 71.7157287525385 -100 -10 5.6843418860808e-14 -28.2842712474618 -10 34.5430062484535 0 135.964362485763 0 34.5430062484535 -10 135.964362485763 -10 4 1 3 2 1 4 

TShapes 119
Ve
1e-07
-100 100 0
0 0

0101101
*
Ve
1e-07
100 100 0
0 0

0101101
*
Ed
 1e-07 1 1 0
1  1 0 0 200
6  1 1 10
6  2 2 11
0

0101000
+119 13 -118 13 *
Ve
1.5e-07
100 100 -10
0 0

0101101
*
Ed
 1e-07 1 1 0
1  2 0 0 10
6  3 1 14
6  4 3 14
0

0101000
+118 15 -116 15 *
Ve
1.50000063552874e-07
71.7157287525379 100 -10
0 0

0101101
*
Ed
 1.5e-07 1 1 0
1  3 0 124.045056616598 152.32932786406
6  5 1 16
6  6 4 16
0

0101000
+114 17 -116 17 *
Ve
1.50000063552874e-07
71.7157287525379 100 -20
0 0

0101101
*
Ed
 1.5e-07 1 1 0
1  4 0 0 10
6  7 1 16
6  8 5 16
0

0101000
+114 17 -112 17 *
Ve
1.50000014210855e-07
-71.7157287525384 100 -20
0 0

0101101
*
Ed
 1e-07 1 1 0
1  5 0 28.2842712474616 171.715728752538
6  9 1 20
6  10 6 20
0

0101000
+110 21 -112 21 *
Ve
1.50000014210855e-07
-71.7157287525384 100 -10
0 0

0101101
*
Ed
 1.5e-07 1 1 0
1  6 0 -10 0
6  11 1 0
6  12 7 0
0

0101000
+110 22 -108 22 *
Ve
1.5e-07
-100 100 -10
0 0

0101101
*
Ed
 1.5e-07 1 1 0
1  7 0 -47.6717307681139 -19.3874595206523
6  13 1 0
6  14 4 0
0

0101000
+106 22 -108 22 *
Ed
 1e-07 1 1 0
1  8 0 0 10
6  15 1 14
6  16 8 14
0

0101000
+119 15 -106 15 *
Wi

0101100
-117 9 -115 5 +113 4 -111 4 +109 19 -107 0 +105 0 +104 5 *
Fa
0  1e-07 1 5
2  1
0111000
+103 0 *
Ve
1e-07
100 -100 0
0 0

0101101
*
Ed
 1e-07 1 1 0
1  9 0 0 200
6  17 2 11
6  18 3 10
0

0101000
+118 13 -101 13 *
Ve
1e-07
-100 -100 0
0 0

0101101
*
Ed
 1e-07 1 1 0
1  10 0 0 200
6  19 2 11
6  20 9 10
0

0101000
+101 13 -99 13 *
Ed
 1e-07 1 1 0
1  11 0 0 200
6  21 2 11
6  22 8 10
0

0101000
+99 13 -119 13 *
Wi

0101100
+117 0 +100 0 +98 0 +97 0 *
Fa
0  1e-07 2 0
2  2
0111000
+96 24 *
Ve
1.5e-07
100 -100 -10
0 0

0101101
*
Ed
 1e-07 1 1 0
1  12 0 0 10
6  23 3 14
6  24 9 14
0

0101000
+101 15 -94 15 *
Ve
1.50000072461426e-07
100 -71.7157287525378 -10
0 0

0101101
*
Ed
 1.5e-07 1 1 0
1  13 0 124.045056616598 152.32932786406
6  25 3 0
6  26 4 0
0

0101000
+92 22 -94 22 *
Ve
1.50000042632564e-07
100 -71.7157287525379 -20
0 0

0101101
*
Ed
 1.5e-07 1 1 0
1  14 0 0 10
6  27 3 0
6  28 10 0
0

0101000
+92 22 -90 22 *
Ve
1.5e-07
100 71.7157287525384 -20
0 0

0101101
*
Ed
 1e-07 1 1 0
1  15 0 28.2842712474616 171.715728752538
6  29 3 20
6  30 11 20
0

0101000
+88 21 -90 21 *
Ve
1.5e-07
100 71.7157287525384 -10
0 0

0101101
*
Ed
 1.5e-07 1 1 0
1  16 0 -10 0
6  31 3 16
6  32 12 16
0

0101000
+88 17 -86 17 *
Ed
 1.5e-07 1 1 0
1  17 0 -52.3282692318861 -24.0439979844246
6  33 3 16
6  34 4 16
0

0101000
+116 17 -86 17 *
Wi

0101100
-100 9 -93 5 +91 0 -89 0 +87 19 -85 4 +84 4 +115 5 *
Fa
0  1e-07 3 5
2  3
0111000
+83 0 *
Ve
1.50000020097183e-07
-7.105427357601e-15 28.2842712474619 -20
0 0

0101101
*
Ed
 1.00000044938668e-07 1 1 0
1  18 0 189.167507520657 290.588863757966
6  35 5 28
6  36 6 28
0

0101000
+81 29 -112 29 *
Ve
1.50000020097183e-07
-7.105427357601e-15 28.2842712474619 -10
0 0

0101101
*
Ed
 1.5e-07 1 1 0
1  19 0 189.167507520657 290.588863757966
6  37 5 32
6  38 4 32
0

0101000
+79 33 -114 33 *
Ed
 1.5e-07 1 1 0
1  20 0 -10 0
6  39 5 0
6  40 7 0
0

0101000
+79 22 -81 22 *
Wi

0101100
-80 27 +111 4 +78 31 -77 0 *
Fa
0  1e-07 4 4
2  5
0111000
+76 0 *
Ed
 1e-07 1 1 0
1  21 0 47.746151283347 149.167507520657
6  41 6 38
6  42 7 38
0

0101000
+110 39 -81 39 *
Wi

0101100
-80 27 +109 19 -74 37 *
Fa
0  1e-07 5 34
2  6
0111000
+73 0 *
Ed
 1.5e-07 1 1 0
1  22 0 47.746151283347 149.167507520657
6  43 7 42
6  44 4 42
0

0101000
+108 43 -79 43 *
Wi

0101100
-74 37 +77 0 +71 41 +107 0 *
Fa
0  1e-07 6 40
2  7
0111000
+70 0 *
Ve
1.50000020097183e-07
-100 71.7157287525379 -10
0 0

0101101
*
Ed
 1.5e-07 1 1 0
1  23 0 119.386400888478 147.67067213594
6  45 8 0
6  46 4 0
0

0101000
+68 22 -106 22 *
Ve
1.50000028421709e-07
-100 71.7157287525379 -20
0 0

0101101
*
Ed
 1.5e-07 1 1 0
1  24 0 0 10
6  47 8 0
6  48 13 0
0

0101000
+68 22 -66 22 *
Ve
1.5e-07
-100 -71.7157287525384 -20
0 0

0101101
*
Ed
 1e-07 1 1 0
1  25 0 28.2842712474616 171.715728752538
6  49 8 20
6  50 14 20
0

0101000
+64 21 -66 21 *
Ve
1.5e-07
-100 -71.7157287525384 -10
0 0

0101101
*
Ed
 1.5e-07 1 1 0
1  26 0 -10 0
6  51 8 16
6  52 15 16
0

0101000
+64 17 -62 17 *
Ve
1.5e-07
-100 -100 -10
0 0

0101101
*
Ed
 1.5e-07 1 1 0
1  27 0 -47.6717307681139 -19.3874595206523
6  53 8 16
6  54 4 16
0

0101000
+60 17 -62 17 *
Ed
 1e-07 1 1 0
1  28 0 0 10
6  55 8 14
6  56 9 14
0

0101000
+99 15 -60 15 *
Wi

0101100
-97 9 -104 5 +67 0 -65 0 +63 19 -61 4 +59 4 +58 5 *
Fa
0  1e-07 7 5
2  8
0111000
+57 0 *
Ve
1.50000014210855e-07
-71.7157287525379 -100 -10
0 0

0101101
*
Ed
 1.5e-07 1 1 0
1  29 0 119.386400888478 147.67067213594
6  57 9 16
6  58 4 16
0

0101000
+55 17 -60 17 *
Ve
1.50000014210855e-07
-71.7157287525379 -100 -20
0 0

0101101
*
Ed
 1.5e-07 1 1 0
1  30 0 0 10
6  59 9 16
6  60 16 16
0

0101000
+55 17 -53 17 *
Ve
1.5e-07
71.7157287525385 -100 -20
0 0

0101101
*
Ed
 1e-07 1 1 0
1  31 0 28.2842712474615 171.715728752538
6  61 9 20
6  62 17 20
0

0101000
+51 21 -53 21 *
Ve
1.5e-07
71.7157287525385 -100 -10
0 0

0101101
*
Ed
 1.5e-07 1 1 0
1  32 0 -10 0
6  63 9 0
6  64 18 0
0

0101000
+51 22 -49 22 *
Ed
 1.5e-07 1 1 0
1  33 0 -52.3282692318861 -24.0439979844246
6  65 9 0
6  66 4 0
0

0101000
+94 22 -49 22 *
Wi

0101100
-98 9 -58 5 +54 4 -52 4 +50 19 -48 0 +47 0 +93 5 *
Fa
0  1e-07 8 5
2  9
0111000
+46 0 *
Ve
1.50000029296428e-07
28.2842712474619 6.3948846218409e-14 -20
0 0

0101101
*
Ed
 1e-07 1 1 0
1  34 0 189.167507520657 290.588863757966
6  67 10 38
6  68 11 38
0

0101000
+44 39 -90 39 *
Ve
1.50000029296428e-07
28.2842712474619 6.3948846218409e-14 -10
0 0

0101101
*
Ed
 1.5e-07 1 1 0
1  35 0 189.167507520657 290.588863757966
6  69 10 42
6  70 4 42
0

0101000
+42 43 -92 43 *
Ed
 1.5e-07 1 1 0
1  36 0 0 10
6  71 10 0
6  72 12 0
0

0101000
+44 22 -42 22 *
Wi

0101100
-43 37 +89 0 +41 41 +40 0 *
Fa
0  1e-07 9 40
2  10
0111000
+39 0 *
Ed
 1.00000071054274e-07 1 1 0
1  37 0 34.5430062484535 135.964362485763
6  73 11 28
6  74 12 28
0

0101000
+88 29 -44 29 *
Wi

0101100
-37 27 -43 37 +87 19 *
Fa
0  1e-07 10 34
2  11
0111000
+36 0 *
Ed
 1.5e-07 1 1 0
1  38 0 34.5430062484535 135.964362485763
6  75 12 32
6  76 4 32
0

0101000
+86 33 -42 33 *
Wi

0101100
-37 27 -40 0 +34 31 +85 4 *
Fa
0  1e-07 11 4
2  12
0111000
+33 0 *
Ve
1.5e-07
-28.2842712474618 -2.8421709430404e-14 -20
0 0

0101101
*
Ed
 1e-07 1 1 0
1  39 0 175.964362485763 277.385718723073
6  77 13 38
6  78 14 38
0

0101000
+31 39 -66 39 *
Ve
1.5e-07
-28.2842712474618 -2.8421709430404e-14 -10
0 0

0101101
*
Ed
 1.5e-07 1 1 0
1  40 0 175.964362485763 277.385718723073
6  79 13 42
6  80 4 42
0

0101000
+29 43 -68 43 *
Ed
 1.5e-07 1 1 0
1  41 0 0 10
6  81 13 0
6  82 15 0
0

0101000
+31 22 -29 22 *
Wi

0101100
-30 37 +65 0 +28 41 +27 0 *
Fa
0  1e-07 12 40
2  13
0111000
+26 0 *
Ed
 1.00000044938668e-07 1 1 0
1  42 0 47.746151283347 149.167507520657
6  83 14 28
6  84 15 28
0

0101000
+64 29 -31 29 *
Wi

0101100
-24 27 -30 37 +63 19 *
Fa
0  1e-07 13 34
2  14
0111000
+23 0 *
Ed
 1.5e-07 1 1 0
1  43 0 47.746151283347 149.167507520657
6  85 15 32
6  86 4 32
0

0101000
+62 33 -29 33 *
Wi

0101100
-24 27 -27 0 +21 31 +61 4 *
Fa
0  1e-07 14 4
2  15
0111000
+20 0 *
Ve
1.50000015888219e-07
5.6843418860808e-14 -28.2842712474618 -20
0 0

0101101
*
Ed
 1.00000071054274e-07 1 1 0
1  44 0 175.964362485763 277.385718723073
6  87 16 28
6  88 17 28
0

0101000
+18 29 -53 29 *
Ve
1.50000015888219e-07
5.6843418860808e-14 -28.2842712474618 -10
0 0

0101101
*
Ed
 1.5e-07 1 1 0
1  45 0 175.964362485763 277.385718723073
6  89 16 32
6  90 4 32
0

0101000
+16 33 -55 33 *
Ed
 1.5e-07 1 1 0
1  46 0 -10 0
6  91 16 0
6  92 18 0
0

0101000
+16 22 -18 22 *
Wi

0101100
-17 27 +52 4 +15 31 -14 0 *
Fa
0  1e-07 15 4
2  16
0111000
+13 0 *
Ed
 1e-07 1 1 0
1  47 0 34.5430062484535 135.964362485763
6  93 17 38
6  94 18 38
0

0101000
+51 39 -18 39 *
Wi

0101100
-17 27 +50 19 -11 37 *
Fa
0  1e-07 16 34
2  17
0111000
+10 0 *
Ed
 1.5e-07 1 1 0
1  48 0 34.5430062484535 135.964362485763
6  95 18 42
6  96 4 42
0

0101000
+49 43 -16 43 *
Wi

0101100
-11 37 +14 0 +8 41 +48 0 *
Fa
0  1e-07 17 40
2  18
0111000
+7 0 *
Wi

0101100
+34 31 +41 41 +91 0 +47 0 +8 41 +15 31 +54 4 +59 4 +21 31 +28 41 
+67 0 +105 0 +71 41 +78 31 +113 4 +84 4 *
Fa
0  1.5e-07 18 0
2  4
0111000
+5 0 *
Sh

0101100
-102 0 -95 23 -82 0 -75 0 +72 0 -69 0 -56 0 -45 0 -38 0 +35 0 
-32 0 -25 0 +22 0 -19 0 -12 0 +9 0 -6 0 +4 0 *
So

0100000
+3 0 *
Co

1100000
+2 1 *

+1 0 